<svg xmlns="http://www.w3.org/2000/svg" xmlns:xlink="http://www.w3.org/1999/xlink" version="1.1"
	width="1100" height="1010"
	viewBox="0 0 1100 1010">
	<g transform="scale(8.94054945246178) translate(10, 10)">
		<defs id="SvgjsDefs1001" />
		<g id="SvgjsG1007" featureKey="symbolGroupContainer" transform="matrix(1,0,0,1,0,0)"
			fill="#fff">
			<rect width="103" height="93" rx="8" />
		</g>
		<g id="SvgjsG1008" featureKey="symbolFeature-0"
			transform="matrix(0.1679104559555764,0,0,0.1679104559555764,8.498133767043015,3.498133767043015)"
			fill="#000000">
			<g xmlns="http://www.w3.org/2000/svg">
				<path
					d="M443.5,199.8v-75H406V106c0-20.6-16.9-37.5-37.5-37.5H162.3c-20.6,0-56.3,16.9-56.3,37.5v18.8H68.5v75H106v75   c-20.6,0-37.5,16.9-37.5,37.5V406h18.8v37.5h56.3V406h225v37.5h56.3V406h18.8v-93.8c0-20.6-16.9-37.5-37.5-37.5v-75H443.5z    M143.5,106h225v112.5h-225V106z M134.1,368.5c-15.6,0-28.1-12.6-28.1-28.1c0-15.6,12.6-28.1,28.1-28.1c15.6,0,28.1,12.6,28.1,28.1   C162.3,355.9,149.7,368.5,134.1,368.5z M312.3,368.5H199.8v-75h112.5V368.5z M377.9,368.5c-15.6,0-28.1-12.6-28.1-28.1   c0-15.6,12.6-28.1,28.1-28.1c15.6,0,28.1,12.6,28.1,28.1C406,355.9,393.4,368.5,377.9,368.5z" />
			</g>
		</g>		
	</g>
</svg>